Coordinates
version=1
nRows=7
nColumns=40
inDegrees=yes

Units are S.I. units (second, meters, Newtons, ...)
Angles are in degrees.

endheader
time	pelvis_tilt	pelvis_list	pelvis_rotation	pelvis_tx	pelvis_ty	pelvis_tz	hip_flexion_r	hip_adduction_r	hip_rotation_r	knee_angle_r	knee_angle_r_beta	ankle_angle_r	subtalar_angle_r	mtp_angle_r	hip_flexion_l	hip_adduction_l	hip_rotation_l	knee_angle_l	knee_angle_l_beta	ankle_angle_l	subtalar_angle_l	mtp_angle_l	lumbar_extension	lumbar_bending	lumbar_rotation	arm_flex_r	arm_add_r	arm_rot_r	elbow_flex_r	pro_sup_r	wrist_flex_r	wrist_dev_r	arm_flex_l	arm_add_l	arm_rot_l	elbow_flex_l	pro_sup_l	wrist_flex_l	wrist_dev_l
     38.48250000	     -0.98933909	     -4.32237621	     -2.27215092	      0.93154358	      0.91628565	      0.41321131	     23.75400166	     -7.86891796	     -6.81447637	     64.86132708	     64.86132708	      8.75016262	    -19.47858874	     18.15740224	     14.74004753	     -1.18981108	     -4.13604543	     32.87294483	     32.87294483	     22.33620920	    -18.35168556	      9.58721172	    -11.85277532	      7.39624799	      2.83552558	     10.41607313	    -12.39150313	    -17.19658575	     23.37087218	     46.75943530	      0.00000000	      0.00000000	     23.08711074	    -16.06333321	     12.16001333	     41.26509178	     45.46000844	      0.00000000	      0.00000000
     38.50185714	     -1.03179217	     -4.43816530	     -3.02826573	      0.93011043	      0.91650545	      0.41244035	     24.83358299	     -7.26150713	     -6.54120251	     63.61001957	     63.61001957	      9.53476559	    -19.43503962	     18.00130265	     14.25120194	     -1.32773794	     -4.75804371	     32.63733469	     32.63733469	     22.63423706	    -18.34150077	      9.75210486	    -12.08093125	      7.80286438	      2.72895755	      7.82902905	    -12.30591236	    -17.32902301	     22.26185367	     46.80277115	      0.00000000	      0.00000000	     24.74952445	    -16.62564259	     11.59191748	     42.56901885	     45.55966906	      0.00000000	      0.00000000
     38.52121429	     -1.25173695	     -4.54098085	     -3.78797885	      0.92853212	      0.91703001	      0.41208131	     25.95051270	     -6.57956736	     -6.32075991	     61.76831459	     61.76831459	     10.18530754	    -19.35984152	     17.76298112	     13.84469478	     -1.47720778	     -5.39709597	     32.16491171	     32.16491171	     22.77786324	    -18.31952891	      9.84057344	    -12.09176646	      8.17070558	      2.08194644	      5.60587904	    -12.06320507	    -17.41624918	     21.47307033	     46.82618663	      0.00000000	      0.00000000	     26.21657110	    -17.64043138	     11.12011818	     43.29206523	     45.63188474	      0.00000000	      0.00000000
     38.54057143	     -1.41267406	     -4.67188346	     -4.61227126	      0.92701984	      0.91818069	      0.41209142	     26.67716024	     -5.84676925	     -6.19430455	     59.12082075	     59.12082075	      9.96598531	    -19.25963818	     15.13522200	     13.18480689	     -1.68690948	     -6.18286995	     31.36339730	     31.36339730	     22.70088729	    -18.19476797	      9.62182879	    -12.34179302	      8.50335966	      2.23758095	      2.69741084	    -12.01564372	    -18.10229716	     21.73467244	     46.88472957	      0.00000000	      0.00000000	     27.24498427	    -18.00627371	      9.11618443	     46.41586992	     45.92220283	      0.00000000	      0.00000000
     38.55992857	     -1.69375275	     -4.81824605	     -5.41612474	      0.92537062	      0.91962645	      0.41247882	     27.39076043	     -4.98159978	     -5.99862854	     56.04035128	     56.04035128	     10.09739860	    -19.04445091	     14.58774281	     12.56392697	     -1.92042260	     -6.93803542	     30.37553381	     30.37553381	     22.59661193	    -18.01437149	      9.69847145	    -12.38177146	      8.85565879	      2.05601092	      0.49781977	    -11.96716403	    -18.21728432	     21.03448979	     46.91199794	      0.00000000	      0.00000000	     28.73049611	    -18.71684190	      8.49738154	     47.47524765	     46.01423483	      0.00000000	      0.00000000
     38.57928571	     -2.06439289	     -4.90257466	     -6.21780987	      0.92375339	      0.92102661	      0.41314331	     27.82685432	     -4.28354930	     -6.03849045	     52.19535305	     52.19535305	      8.63949417	    -18.76790065	      9.48248167	     11.96565834	     -2.12536005	     -7.81138844	     29.22450998	     29.22450998	     22.03913005	    -17.83596795	      8.66716435	    -12.38897135	      9.07288261	      1.90515483	     -2.15142681	    -11.83445696	    -18.84176638	     21.96491462	     46.92941770	      0.00000000	      0.00000000	     29.65507442	    -19.27797071	      6.54294614	     50.03877346	     46.27622310	      0.00000000	      0.00000000
     38.59864286	     -2.37980426	     -5.01907479	     -6.98412839	      0.92210125	      0.92269834	      0.41421276	     28.09588087	     -3.41659934	     -5.84273282	     48.18449558	     48.18449558	      8.19590507	    -18.07971135	      8.54804245	     11.26310187	     -2.34774958	     -8.61527406	     28.01450392	     28.01450392	     21.82454798	    -17.51762290	      8.67304536	    -12.41503929	      9.27915641	      1.73921391	     -4.09908601	    -11.74589698	    -18.96960885	     21.60316446	     46.94434133	      0.00000000	      0.00000000	     31.08854092	    -20.01325291	      5.88405906	     51.15374874	     46.37074791	      0.00000000	      0.00000000
